REM MD5 55f1df34cd066e7d4133f538dad4b407
FILE "DemoDemo PlayStation Vol. 21 (Japan).bin" BINARY
  TRACK 01 MODE2/2352
    INDEX 01 00:00:00
  TRACK 02 AUDIO
    INDEX 00 36:00:48
    INDEX 01 36:02:48
  TRACK 03 AUDIO
    INDEX 00 36:44:10
    INDEX 01 36:46:10
  TRACK 04 AUDIO
    INDEX 00 37:35:10
    INDEX 01 37:37:10
REM LEADOUT 40:47:27
